<svg xmlns="http://www.w3.org/2000/svg" viewBox="120 370 820 280">
<g transform="translate(0,1024) scale(0.1,-0.1)" fill="#1f2639" fill-rule="evenodd" stroke="none">
<path d="M1770 6100 l0 -60 -55 0 -55 0 0 60 0 60 55 0 55 0 0 -60z m5550 14 c0
-33 2 -35 27 -32 22 2 29 9 33 33 4 22 11 31 28 33 22 3 23 1 16 -32 -6 -34
-5 -36 20 -36 19 0 26 -5 26 -20 0 -15 -7 -20 -29 -20 -17 0 -31 -6 -35 -16
-12 -31 -6 -44 19 -44 18 0 25 -5 25 -20 0 -16 -7 -20 -30 -20 -23 0 -30 -5
-30 -19 0 -33 -11 -51 -32 -51 -18 0 -19 4 -14 35 7 34 6 35 -22 35 -26 0 -31
-4 -36 -34 -5 -26 -11 -34 -26 -33 -16 1 -20 9 -20 34 0 26 -4 33 -20 33 -33
0 -26 38 8 42 21 2 28 9 30 31 3 23 0 27 -22 27 -19 0 -26 5 -26 20 0 15 7 20
30 20 25 0 30 4 36 35 4 25 11 35 25 35 15 0 19 -7 19 -36z m-2768 -13 c178
-46 332 -133 459 -260 90 -90 146 -171 205 -295 71 -151 89 -240 89 -446 -1
-150 -4 -187 -23 -258 -51 -188 -137 -341 -265 -471 -123 -125 -255 -203 -432
-258 -84 -25 -103 -27 -265 -27 -192 0 -253 11 -403 74 -224 93 -439 314 -527
542 -59 153 -74 237 -74 408 1 134 5 168 27 253 107 404 425 692 835 757 88
14 286 4 374 -19z m-1850 4 c158 -33 304 -96 414 -179 61 -46 144 -129 144
-144 0 -4 -28 -35 -62 -67 -35 -33 -98 -93 -140 -134 l-77 -73 -61 54 c-112
100 -214 149 -351 168 -236 34 -484 -90 -591 -295 -62 -120 -82 -202 -82 -340
0 -198 47 -321 174 -447 88 -88 178 -138 295 -163 212 -45 432 27 575 188 l35
39 140 -128 c77 -70 141 -133 143 -140 4 -16 -90 -116 -158 -169 -185 -142
-389 -202 -660 -192 -224 8 -390 59 -561 173 -195 129 -350 356 -402 586 l-15
67 147 3 146 3 3 68 3 67 -156 0 -155 0 0 78 c0 102 24 232 61 340 116 328
382 556 739 632 111 24 348 26 452 5z m5793 -19 c137 -36 313 -108 330 -135 4
-8 -125 -324 -138 -338 -2 -2 -42 15 -88 36 -46 22 -125 52 -174 67 -81 25
-105 28 -245 28 -141 1 -161 -2 -215 -23 -139 -55 -192 -180 -119 -278 38 -51
132 -88 397 -158 263 -69 337 -96 426 -152 140 -88 207 -193 230 -356 6 -42 8
-97 4 -123 l-6 -46 -141 3 -141 4 -3 -72 -3 -73 131 0 130 0 -24 -48 c-67
-132 -213 -247 -376 -296 -212 -65 -522 -61 -768 10 -85 24 -304 126 -351 162
l-24 19 78 169 c42 93 79 171 81 173 2 2 28 -12 57 -31 121 -81 280 -141 427
-164 297 -44 489 35 490 202 0 37 -6 61 -23 85 -46 68 -112 98 -372 165 -328
85 -450 139 -555 243 -73 73 -105 130 -126 230 -28 131 -13 243 47 368 89 186
270 305 538 353 25 5 132 7 236 6 167 -3 202 -7 290 -30z m-1835 -25 c218 -56
377 -175 459 -342 22 -46 49 -113 58 -149 23 -87 22 -272 -1 -360 -63 -242
-236 -413 -497 -491 -67 -20 -103 -23 -379 -28 l-305 -6 -3 -287 -2 -288 -215
0 -215 0 0 23 c-1 12 -2 60 -3 107 l-2 85 108 3 107 3 0 69 0 69 -107 3 -108
3 -3 628 -3 627 111 0 110 0 0 75 0 75 -104 0 c-65 0 -107 4 -112 11 -3 6 -3
53 1 106 l7 94 506 -4 c484 -3 511 -4 592 -26z m-5030 -128 l0 -93 -90 0 -90
0 0 93 0 92 90 0 90 0 0 -92z m7402 -1743 l3 -90 -87 0 -88 0 0 -60 0 -60 -55
0 -55 0 0 60 0 60 56 0 55 0 -1 83 c-1 45 -1 85 -1 90 1 4 39 7 85 7 l85 0 3
-90z M7307 6033 c-4 -3 -7 -17 -7 -30 0 -19 5 -23 30 -23 19 0 30 5 30 14 0 8 3 21 6 30 5 12 -1 16 -23 16 -16 0 -33 -3 -36 -7z M4182 5959 c-107 -53 -172 -159 -172 -278 0 -57 -2 -60 -34 -80 -19 -12 -61 -51 -95 -86 -111 -119 -168 -284 -157 -455 7 -104 26 -172 77 -270 52 -100 104 -159 195 -219 131 -88 274 -117 425 -86 229 46 411 230 465 471 22 103 15 251 -17 349 -32 96 -110 209 -186 270 -54 42 -63 54 -63 82 0 245 -232 405 -438 302z m194 -600 c97 -47 119 -169 44 -249 l-29 -31 33 -150 33 -149 -144 0 c-78 0 -143 3 -143 7 0 3 14 71 32 150 l32 143 -26 28 c-37 40 -48 65 -48 115 0 57 32 105 90 135 55 27 72 28 126 1z M1779 5796 c-2 -2 -3 -43 -1 -90 l3 -86 85 0 84 0 0 90 0 90 -83 0 c-46 0 -86 -2 -88 -4z M7530 5792 l0 -93 93 3 92 3 0 89 0 90 -92 0 -93 1 0 -93z M8374 4425 c-5 -30 -10 -35 -35 -35 -22 0 -29 -5 -29 -20 0 -15 7 -20 26 -20 22 0 25 -4 22 -27 -2 -22 -9 -29 -33 -33 -22 -4 -31 -11 -33 -28 -3 -18 1 -22 22 -22 22 0 26 -4 26 -31 0 -26 3 -30 23 -27 16 2 23 11 25 31 3 22 8 27 31 27 25 0 27 -3 23 -30 -4 -26 -1 -30 21 -30 19 0 26 6 31 30 5 25 10 30 36 30 25 0 30 4 30 25 0 20 -5 25 -26 25 -22 0 -25 4 -22 28 2 21 9 28 29 30 36 4 48 42 13 42 -21 0 -24 5 -24 36 0 31 -3 35 -22 32 -17 -2 -24 -11 -28 -33 -4 -24 -11 -31 -34 -33 -28 -3 -28 -3 -22 32 6 34 5 36 -18 36 -21 0 -26 -6 -32 -35z m86 -105 c0 -26 -3 -30 -29 -30 -25 0 -28 3 -24 24 3 15 13 27 27 29 11 2 22 5 24 6 1 0 2 -12 2 -29z M5995 5708 c-3 -7 -4 -155 -3 -328 l3 -315 245 1 c226 1 249 3 302 23 84 33 142 81 175 148 25 51 28 69 28 153 0 84 -3 102 -28 152 -33 67 -92 120 -169 151 -48 19 -77 21 -300 25 -202 3 -249 1 -253 -10z"/>
</g>
</svg>